<svg width='200' height='200' fill="#000000" xmlns="http://www.w3.org/2000/svg" xmlns:xlink="http://www.w3.org/1999/xlink" version="1.1" x="0px" y="0px" viewBox="0 0 100 100" enable-background="new 0 0 100 100" xml:space="preserve"><g><polygon fill="#000000" points="96.133,46.254 82.191,46.254 82.191,68.897 95.285,68.997 89.84,56.972  "/><polygon fill="#000000" points="9.293,56.972 3.847,68.997 16.94,68.897 16.94,46.254 3,46.254  "/><path fill="#000000" d="M51.031,40.977v-0.003l-0.903,0c-0.056,0-0.109,0-0.165,0l0,0h-0.176l0,0c-0.055,0-0.108,0-0.161,0l0,0   l-0.118,0.001v-0.001c-0.055,0-0.107,0-0.161,0v0.001h-0.175v-0.001c-0.258,0-0.508,0.001-0.76,0.002h-0.252v0   c-26.156,0.093-28.772,3.258-28.772,3.258v21.034c0,0,2.554-3.104,29.033-3.177l2.793,0.001   c26.014,0.108,28.533,3.176,28.533,3.176V44.235C79.746,44.235,77.135,41.075,51.031,40.977z"/><path fill="#000000" d="M51.031,64.535h-0.949c-0.066,0-0.132,0-0.2,0c-0.086,0-0.169,0-0.255,0h-0.118l0,0   c-0.086,0-0.17,0-0.256,0c-0.161,0-0.317,0-0.476,0.002h-0.617l0,0c-11.922,0.042-18.746,0.708-22.581,1.357   c0.547,1.333,1.266,2.572,2.186,3.659c2.63,3.102,6.674,4.288,10.505,4.887c3.034,0.475,6.479-0.021,9.309,1.428   c0.694,0.354,1.436,0.857,2.003,1.406l-0.005-0.924c0.002,0.003,0.005,0.006,0.008,0.01l-0.003,0.914   c0.567-0.549,1.28-1.052,1.973-1.406c2.83-1.448,6.275-0.953,9.309-1.428c3.83-0.599,7.875-1.785,10.506-4.887   c0.92-1.087,1.639-2.326,2.186-3.659c-3.828-0.647-10.637-1.313-22.523-1.356V64.535z"/></g><g><path fill="#000000" d="M49.963,40.975L49.963,40.975c-0.031,0-0.059,0-0.088,0C49.905,40.974,49.933,40.975,49.963,40.975z"/><path fill="#000000" d="M49.649,26.055L49.566,26l-0.081,0.055c-9.035,5.62-25.309,5.733-25.309,5.733   c1.858,2.314,2.478,5.061,2.482,7.911c4.941-0.696,11.704-1.092,20.067-1.159v-0.012h2.446c0.027,0,0.056,0,0.083,0   c0.03,0,0.061,0,0.092,0h0.066h0.095h0.118h0.028h0.133c0.03,0,0.06,0,0.091,0c0.029,0,0.056,0,0.085,0h2.445v0.012   c8.363,0.067,15.125,0.463,20.066,1.159c0.004-2.85,0.623-5.597,2.482-7.911C74.957,31.789,58.684,31.675,49.649,26.055z"/><path fill="#000000" d="M49.788,40.975c0.03,0,0.058,0,0.087,0C49.845,40.974,49.817,40.974,49.788,40.975L49.788,40.975z"/><path fill="#000000" d="M49.172,40.975c0.029,0,0.058,0,0.087,0C49.23,40.974,49.201,40.974,49.172,40.975L49.172,40.975z"/><path fill="#000000" d="M49.347,40.975L49.347,40.975c-0.03,0-0.058,0-0.088,0C49.289,40.974,49.317,40.975,49.347,40.975z"/></g></svg>