<svg width='200' height='200' fill="#000000" xmlns="http://www.w3.org/2000/svg" xmlns:xlink="http://www.w3.org/1999/xlink" version="1.1" x="0px" y="0px" viewBox="0 0 865.253 296.77" enable-background="new 0 0 865.253 296.77" xml:space="preserve"><g><polygon points="248.189,155.77 57.009,155.77 94.009,192.77 285.189,192.77  "/><polygon points="107.009,205.77 144.009,242.77 335.199,242.77 298.199,205.77  "/><polygon points="614.765,105.77 614.414,105.77 564.685,105.77 433.372,237.074 302.059,105.77 252.329,105.77 251.979,105.77    7.009,105.77 44.009,142.77 288.979,142.77 433.099,286.89 433.372,286.617 433.645,286.89 577.765,142.77 822.733,142.77    859.733,105.77  "/><polygon points="581.554,192.77 772.733,192.77 809.733,155.77 618.554,155.77  "/><polygon points="531.544,242.77 722.733,242.77 759.733,205.77 568.544,205.77  "/><path d="M325.302,71.599c0,29.897,24.322,54.22,54.218,54.22c11.13,0,21.702-3.305,30.772-9.589l23.017,24.114l23.415-24.529   c9.124,6.472,20.14,10.004,31.362,10.004c29.897,0,54.221-24.323,54.221-54.22c0-12.127-4.07-23.857-11.521-33.372l29.705-31.12   c0,0-94.786,22.387-127.176,30.714C401.203,29.566,306.14,7.107,306.14,7.107l30.245,31.689   C329.217,48.207,325.302,59.736,325.302,71.599z M515.371,54.375c3.237,5.127,4.988,11.115,4.988,17.223   c0,17.798-14.478,32.278-32.273,32.278c-5.669,0-11.112-1.445-15.949-4.208L515.371,54.375z M351.854,55.003l42.964,45.015   c-4.682,2.534-9.9,3.858-15.298,3.858c-17.794,0-32.271-14.48-32.271-32.278C347.249,65.667,348.831,60.001,351.854,55.003z"/></g></svg>