<svg width="130" height="130" xmlns="http://www.w3.org/2000/svg">

 <g>
  <title>background</title>
  <rect fill="none" id="canvas_background" height="132" width="132" y="-1" x="-1"/>
 </g>
 <g>
  <title>Layer 1</title>
  <polygon id="svg_1" points="48.944000244140625,82.75 48.944000244140625,91.08300018310547 54.5,91.08300018310547 79.5,91.08300018310547 85.05599975585938,91.08300018310547 85.05599975585938,82.75 "/>
  <path id="svg_2" d="m62.833,70.25c0,-0.768 -0.621,-1.389 -1.389,-1.389c-0.613,0 -1.117,0.402 -1.301,0.954l-0.017,-0.005l-2.461,7.384l-7.332,0c-0.768,0 -1.389,0.621 -1.389,1.389s0.621,1.389 1.389,1.389l9.334,0l3.094,-9.282l-0.017,-0.006c0.049,-0.138 0.089,-0.28 0.089,-0.434z"/>
  <g id="svg_3">
   <path id="svg_4" d="m53.111,68.861l-11.965,0l-3.503,-9.584l-0.019,0.007c-0.531,-1.689 -2.091,-2.924 -3.957,-2.924c-0.67,0 -1.295,0.174 -1.856,0.455l-0.007,-0.014c-9.547,4.773 -14.804,15.469 -14.804,30.116c0,2.301 1.865,4.166 4.167,4.166l12.5,0l0,13.889c0,2.302 1.865,4.167 4.167,4.167s4.166,-1.866 4.166,-4.167l0,-18.055c0,-2.302 -1.865,-4.167 -4.167,-4.167l-12.323,0c0.506,-5.989 2.274,-12.45 6.963,-16.456l4.265,6.587l0.01,-0.005c0.457,0.91 1.388,1.541 2.475,1.541l13.889,0c1.534,0 2.777,-1.244 2.777,-2.778s-1.244,-2.778 -2.778,-2.778z"/>
   <circle id="svg_5" r="6.25" cy="53.583" cx="44.778"/>
  </g>
  <path id="svg_6" d="m83.667,77.194l-7.333,0l-2.461,-7.384l-0.016,0.005c-0.185,-0.552 -0.688,-0.954 -1.302,-0.954c-0.768,0 -1.389,0.621 -1.389,1.389c0,0.154 0.04,0.296 0.088,0.434l-0.017,0.006l3.094,9.282l9.335,0c0.768,0 1.389,-0.621 1.389,-1.389s-0.62,-1.389 -1.388,-1.389z"/>
  <circle id="svg_7" r="6.25" cy="53.583" cx="89.223"/>
  <path id="svg_8" d="m102.197,56.801l-0.007,0.014c-0.562,-0.281 -1.188,-0.455 -1.857,-0.455c-1.864,0 -3.426,1.234 -3.956,2.924l-0.02,-0.007l-3.503,9.584l-11.965,0c-1.534,0 -2.777,1.243 -2.777,2.777s1.243,2.778 2.777,2.778l13.889,0c1.087,0 2.019,-0.631 2.476,-1.541l0.01,0.005l4.266,-6.587c4.688,4.006 6.456,10.467 6.962,16.456l-12.325,0c-2.302,0 -4.167,1.865 -4.167,4.167l0,18.055c0,2.302 1.865,4.167 4.167,4.167s4.166,-1.865 4.166,-4.167l0,-13.888l12.5,0c2.302,0 4.167,-1.865 4.167,-4.166c0,-14.647 -5.257,-25.343 -14.803,-30.116z"/>
  <path id="svg_9" d="m67,43.167c-8.042,0 -14.583,-6.542 -14.583,-14.583s6.541,-14.584 14.583,-14.584s14.583,6.542 14.583,14.583s-6.541,14.584 -14.583,14.584zm0,-26.389c-6.509,0 -11.806,5.295 -11.806,11.805s5.297,11.806 11.806,11.806s11.806,-5.296 11.806,-11.806s-5.297,-11.805 -11.806,-11.805z"/>
  <path id="svg_10" d="m73.944,23.028c0,-0.768 -0.621,-1.389 -1.389,-1.389c-0.386,0 -0.732,0.157 -0.983,0.409l-3.184,3.183l0,-4.981c0,-0.768 -0.621,-1.389 -1.389,-1.389s-1.389,0.622 -1.389,1.389l0,8.333c0,0.768 0.621,1.389 1.389,1.389c0.385,0 0.732,-0.157 0.983,-0.409l5.553,-5.551c0.253,-0.252 0.409,-0.6 0.409,-0.984z"/>
 </g>
</svg>