<svg height='100px' width='100px'  fill="#000000" xmlns:x="http://ns.adobe.com/Extensibility/1.0/" xmlns:i="http://ns.adobe.com/AdobeIllustrator/10.0/" xmlns:graph="http://ns.adobe.com/Graphs/1.0/" xmlns="http://www.w3.org/2000/svg" xmlns:xlink="http://www.w3.org/1999/xlink" version="1.1" x="0px" y="0px" viewBox="0 0 100 100" enable-background="new 0 0 100 100" xml:space="preserve"><g><g i:extraneous="self"><g display="none"><path display="inline" fill="#000000" stroke="#000000" stroke-width="4" stroke-miterlimit="10" d="M14.6,2C7.6,2,2,7.6,2,14.6     v70.8C2,92.3,7.6,98,14.6,98h70.8C92.4,98,98,92.3,98,85.4V14.6C98,7.6,92.4,2,85.4,2H14.6z"></path><rect x="14" y="14" display="inline" fill="#000000" stroke="#000000" stroke-miterlimit="10" width="72" height="72"></rect></g><g><rect x="45.5" y="43.5" fill="#000000" width="8.6" height="8.6"></rect><polygon fill="none" points="47.2,18 20,18 20,55.7 25.4,55.7 25.4,22.3 47.2,22.3    "></polygon><path fill="none" d="M56.6,47.8V26.3h-5.4h-2h-2H29.4v29.3v2v2V64h18.5c-0.4-1.2-0.6-2.4-0.6-3.7C47.3,54.4,51.2,49.4,56.6,47.8z      M40.4,40.3h-5.7l2.9-5l2.9-5l2.9,5l2.9,5H40.4z"></path><polygon fill="#000000" points="40.4,30.4 37.6,35.4 34.7,40.3 40.4,40.3 46.2,40.3 43.3,35.4    "></polygon><path fill="#000000" d="M75,69.3l-2.8,2.8l1.4-1.4l-2.8-2.8c1.6-2.2,2.5-4.8,2.5-7.7c0-7-5.6-12.8-12.7-13v-25h-9.4V14H16v45.7     h9.4V68h24.5c2.4,3.2,6.2,5.3,10.4,5.3c2.9,0,5.5-0.9,7.7-2.5l2.8,2.8L69.3,75l10.9,10.9l5.7-5.7L75,69.3z M25.4,55.7H20V18h27.2     v4.3H25.4V55.7z M47.3,60.3c0,1.3,0.2,2.5,0.6,3.7H29.4v-4.3v-2v-2V26.3h17.9h2h2h5.4v21.5C51.2,49.4,47.3,54.4,47.3,60.3z      M60.3,69.3c-1.7,0-3.2-0.5-4.6-1.3c-1.6-0.9-2.8-2.3-3.6-4c-0.5-1.1-0.8-2.4-0.8-3.7c0-3.7,2.2-6.8,5.3-8.2     c1.1-0.5,2.4-0.8,3.7-0.8c0.1,0,0.2,0,0.3,0c4.8,0.2,8.7,4.1,8.7,9C69.3,65.2,65.2,69.3,60.3,69.3z"></path><circle fill="#000000" cx="38" cy="54.6" r="5.4"></circle></g></g></g></svg>