<svg width="140" height="140" xmlns="http://www.w3.org/2000/svg">

 <g>
  <title>background</title>
  <rect fill="none" id="canvas_background" height="142" width="142" y="-1" x="-1"/>
 </g>
 <g>
  <title>Layer 1</title>
  <path id="svg_1" d="m103.055,59.68c0.122,-1.074 0.195,-2.156 0.195,-3.264c0,-16.08 -13.082,-29.167 -29.166,-29.167c-7.135,0 -13.672,2.584 -18.746,6.856c-5.123,1.611 -15.306,2.43 -23.175,-12.02c-0.338,-0.622 -0.971,-1.028 -1.679,-1.077c-0.702,-0.062 -1.392,0.26 -1.817,0.826l-6.25,8.333c-0.49,0.651 -0.553,1.53 -0.163,2.246c6.812,12.513 16.936,15.035 23.947,15.458c-0.832,2.706 -1.284,5.575 -1.284,8.545c0,1.953 0.201,3.857 0.567,5.705l-17.234,24.895l0,33.984l91.666,0l0,-33.924l-16.861,-27.396zm-53.972,-3.264c0,-2.982 0.554,-5.835 1.516,-8.487c0.48,-1.323 1.054,-2.597 1.74,-3.805c1.361,-2.396 3.113,-4.541 5.16,-6.36c0.596,-0.533 1.219,-1.037 1.866,-1.51c4.134,-3.027 9.214,-4.838 14.72,-4.838c13.785,0 24.999,11.215 24.999,25c0,0.704 -0.049,1.396 -0.105,2.084c-1.062,12.813 -11.812,22.917 -24.894,22.917c-13.082,0 -23.831,-10.104 -24.895,-22.917c-0.058,-0.688 -0.107,-1.38 -0.107,-2.084zm-22.513,-24.841l3.562,-4.753c0.901,1.392 1.858,2.669 2.857,3.833l-3.622,4.83c-0.974,-1.143 -1.914,-2.433 -2.797,-3.91zm9.593,9.432c-1.286,-0.676 -2.56,-1.53 -3.807,-2.563l3.593,-4.793c1.194,1.041 2.439,1.925 3.723,2.677l-3.509,4.679zm3.993,1.619l3.394,-4.528c2.279,0.777 4.653,1.131 7.084,1.05c-1.068,1.444 -2.002,2.99 -2.791,4.622c-2.259,-0.057 -4.914,-0.309 -7.687,-1.144zm75.594,74.207l-83.333,0l0,-27.083l83.333,0l0,27.083z" fill="#000000"/>
  <path id="svg_2" d="m78.251,100.167c0,-2.304 -1.864,-4.167 -4.167,-4.167c-2.303,0 -4.167,1.863 -4.167,4.167c0,1.403 0.696,2.637 1.756,3.39l-1.756,7.026l8.334,0l-1.756,-7.026c1.06,-0.753 1.756,-1.987 1.756,-3.39z" fill="#000000"/>
  <path id="svg_3" d="m88.666,64.75c-4.594,0 -8.332,-3.735 -8.332,-8.334c0,-4.594 3.738,-8.333 8.332,-8.333c4.599,0 8.334,3.739 8.334,8.333c0,4.599 -3.735,8.334 -8.334,8.334zm0,-12.5c-2.295,0 -4.166,1.871 -4.166,4.166c0,2.3 1.871,4.167 4.166,4.167c2.299,0 4.167,-1.867 4.167,-4.167c0,-2.295 -1.868,-4.166 -4.167,-4.166z" fill="#000000"/>
  <path id="svg_4" d="m59.5,64.75c-4.596,0 -8.333,-3.735 -8.333,-8.334c0,-4.594 3.737,-8.333 8.333,-8.333c4.596,0 8.333,3.739 8.333,8.333c0.001,4.599 -3.737,8.334 -8.333,8.334zm0,-12.5c-2.297,0 -4.167,1.871 -4.167,4.166c0,2.3 1.87,4.167 4.167,4.167s4.167,-1.867 4.167,-4.167c0,-2.295 -1.87,-4.166 -4.167,-4.166z" fill="#000000"/>
  <path id="svg_5" d="m65.75,71c0,-4.594 3.737,-8.334 8.333,-8.334c4.596,0 8.332,3.74 8.332,8.334c0,4.598 -3.736,8.333 -8.332,8.333c-4.595,0 -8.333,-3.735 -8.333,-8.333zm12.501,0c0,-2.295 -1.87,-4.167 -4.167,-4.167c-2.297,0 -4.167,1.872 -4.167,4.167c0,2.299 1.87,4.166 4.167,4.166c2.297,0 4.167,-1.867 4.167,-4.166z" fill="#000000"/>
  <path id="svg_6" d="m65.75,41.833c0,-4.594 3.737,-8.333 8.333,-8.333c4.596,0 8.332,3.739 8.332,8.333c0,4.598 -3.736,8.333 -8.332,8.333c-4.595,0 -8.333,-3.735 -8.333,-8.333zm12.501,0c0,-2.295 -1.87,-4.167 -4.167,-4.167c-2.297,0 -4.167,1.872 -4.167,4.167c0,2.299 1.87,4.167 4.167,4.167c2.297,0 4.167,-1.868 4.167,-4.167z" fill="#000000"/>
  <circle id="svg_7" r="4.167" cy="56.416" cx="74.084" fill="#000000"/>
 </g>
</svg>